Coordinates
version=1
nRows=17
nColumns=36
inDegrees=yes

Units are S.I. units (second, meters, Newtons, ...)
If the header above contains a line with 'inDegrees', this indicates whether rotational values are in degrees (yes) or radians (no).

endheader
time	pelvis_tilt	pelvis_list	pelvis_rotation	pelvis_tx	pelvis_ty	pelvis_tz	hip_flexion_r	hip_adduction_r	hip_rotation_r	knee_angle_r	knee_angle_r_beta	ankle_angle_r	subtalar_angle_r	mtp_angle_r	hip_flexion_l	hip_adduction_l	hip_rotation_l	knee_angle_l	knee_angle_l_beta	ankle_angle_l	subtalar_angle_l	mtp_angle_l	lumbar_extension	lumbar_bending	lumbar_rotation	arm_flex_r	arm_add_r	arm_rot_r	elbow_flex_r	pro_sup_r	arm_flex_l	arm_add_l	arm_rot_l	elbow_flex_l	pro_sup_l
     44.73333330	      7.81363611	      7.27038306	    171.67391410	      0.56064300	      0.92247365	      0.75248534	      0.85097307	      9.77892567	      3.24720502	     19.53934382	      0.34102588	     13.61854456	     -7.35981919	     -7.49999987	     31.31116084	     -9.49962772	     -1.28317279	      2.71450686	      0.04737708	     -6.65405019	      0.71334679	     -7.49999987	     -3.25579109	      7.89332199	     12.86879542	     19.81069637	    -20.36343851	     -2.44214023	     37.88205217	     82.45465769	      7.27904556	     -3.65658684	     -1.14409809	     11.59973886	     88.73984668
     44.75000000	      7.50118142	      7.28319502	    171.28488703	      0.56065368	      0.92075309	      0.74980279	      0.34941283	      9.45635448	      3.18766792	     22.18204663	      0.38714975	     16.10616397	     -5.82913610	     -7.49999987	     31.64665109	     -9.83416795	     -1.11199199	      3.65275565	      0.06375261	     -6.20013667	      0.56399861	     -7.49999987	     -4.02714746	      7.52500519	     13.26149742	     20.65369725	    -20.38553949	     -2.43368596	     38.50719876	     82.43469784	      7.73242235	     -3.44199632	     -1.26787737	     11.85606963	     88.64194726
     44.76666670	      7.10955852	      7.19786535	    171.23559533	      0.55985048	      0.91913547	      0.75010591	      0.00300801	      9.04785880	      3.08813771	     25.10971620	      0.43824722	     17.35723031	     -5.63525617	     -7.49999987	     31.85700902	     -9.82050273	     -0.59557423	      5.52139168	      0.09636646	     -6.00960971	      0.14161055	     -7.49999987	     -4.69714811	      6.97812435	     13.42104343	     21.21955807	    -20.20480742	     -2.52194902	     38.72686342	     82.49784547	      8.39208006	     -3.31607199	     -1.35718297	     11.86158982	     88.66869336
     44.78333330	      6.61711697	      6.85110069	    171.30747631	      0.55648679	      0.91650441	      0.75468412	      0.11918651	      8.19322496	      2.55845735	     29.09501158	      0.50780375	     17.82709122	     -6.07018361	     -7.49999987	     31.79298378	     -9.36588051	     -0.39725933	      7.91374803	      0.13812096	     -6.61460073	     -0.28771359	     -7.49999987	     -5.42185371	      6.23720489	     13.34501954	     21.65416416	    -19.91298277	     -2.60712521	     38.90637558	     82.53884522	      9.10688038	     -3.24939173	     -1.41914302	     11.91285018	     88.66999477
     44.80000000	      6.54747233	      5.89937563	    171.06664978	      0.55118959	      0.91181981	      0.75992965	      1.67201573	      6.55621922	      1.99117910	     35.01747184	      0.61117018	     18.58206270	     -5.79155023	     -7.49999987	     31.79894708	     -8.39788038	     -0.40526478	     10.41922571	      0.18184979	     -7.76892085	     -1.90804109	     -7.49999987	     -5.34122224	      4.89849813	     13.01421093	     21.74075494	    -19.03405718	     -2.97908739	     39.31946959	     82.63847329	      9.24653884	     -3.28900410	     -1.71362528	     11.65881566	     88.50392566
     44.81666670	      6.38105923	      4.80311067	    171.24419974	      0.54635957	      0.90659098	      0.76377881	      3.87789522	      4.58902637	      1.10119746	     42.10520575	      0.73487447	     17.94915876	     -6.34258608	     -7.49999987	     31.65940041	     -7.03028531	     -0.35895610	     13.11447589	      0.22889078	     -8.48113349	     -3.47716391	     -7.49999987	     -5.11369600	      3.60501209	     12.57780580	     21.34608254	    -18.28665339	     -3.76187091	     39.60231905	     83.02258043	      9.44528219	     -3.21855293	     -2.17251489	     11.41084132	     88.36101538
     44.83333330	      5.68514307	      3.55075775	    171.51505438	      0.54239980	      0.90397712	      0.76493783	      5.97709069	      2.38079394	      0.58639502	     49.48254407	      0.86363332	     15.97513737	     -7.28035086	     -7.49999987	     30.72795451	     -5.49145220	     -0.81048955	     15.53282729	      0.27109898	     -8.34486593	     -4.52781407	     -7.49999987	     -5.50847344	      2.06324331	     11.80290694	     20.86694872	    -17.24931561	     -4.26972002	     39.95589394	     83.42968541	      9.51594275	     -3.38902085	     -2.43749378	     11.34286859	     88.31258703
     44.85000000	      5.00969528	      2.48144756	    171.84524154	      0.53895239	      0.90392823	      0.76526667	      8.13617541	      0.38528400	      0.29667153	     56.33345235	      0.98320422	     13.01519346	     -8.06926134	     -7.49999987	     29.69389660	     -4.11567754	     -1.29665572	     17.66378932	      0.30829128	     -7.62844506	     -5.58351145	     -7.49999987	     -5.82977202	      0.77954961	     10.97101256	     19.87266618	    -15.95163807	     -5.38054100	     40.09596730	     84.90122222	      9.49458888	     -3.61081358	     -3.00165383	     11.40175509	     88.40802553
     44.86666670	      4.01166247	      1.70296788	    172.09038883	      0.53684336	      0.90494634	      0.76596861	      9.88163662	     -1.29416500	      0.24961497	     62.44289400	      1.08983409	      9.70681758	     -8.69366891	     -7.49999987	     28.12660170	     -3.00189252	     -1.92483589	     19.25203528	      0.33601140	     -6.70720407	     -6.40284907	     -7.49999987	     -6.70167258	     -0.18653307	      9.99971674	     18.91422916	    -14.76226893	     -5.30687289	     39.95998565	     85.11341304	      9.55223851	     -3.93838062	     -3.04331633	     11.55506955	     88.39251086
     44.88333330	      3.42821151	      1.22992709	    172.11618336	      0.53565278	      0.90447519	      0.76681173	     12.14378405	     -2.43750590	      0.48288674	     68.07738937	      1.18817459	      6.62421150	     -9.54119464	     -7.49999987	     27.02072803	     -2.28963040	     -2.54540036	     20.64124480	      0.36025768	     -5.76104204	     -7.06929703	     -7.49999987	     -7.08176841	     -0.70510711	      9.14158791	     17.86313479	    -13.50344765	     -5.45479903	     39.21343096	     85.78292184	      9.41634175	     -4.28061613	     -3.17951432	     12.19981034	     88.45214769
     44.90000000	      2.60324896	      1.06868891	    172.00373718	      0.53452565	      0.90416469	      0.76784700	     14.25727871	     -3.20227166	      0.79442625	     73.27680793	      1.27892156	      4.90157688	    -10.10377047	     -7.49999987	     25.66925534	     -1.82709591	     -2.95822549	     21.89943882	      0.38221731	     -4.65243581	     -7.62976948	     -7.49999987	     -8.00475983	     -0.90441306	      8.33933794	     16.68333714	    -12.40823798	     -5.30616681	     38.74629463	     85.93703034	      9.62490628	     -4.58670728	     -3.21613142	     12.67439753	     88.41311744
     44.91666670	      1.81384806	      1.20554708	    171.80340558	      0.53387027	      0.90592184	      0.76954627	     16.49935638	     -3.60001933	      1.13519459	     77.70929645	      1.35628308	      4.33948514	    -10.74970191	     -7.49999987	     24.34009751	     -1.63585715	     -3.03066869	     23.14438235	      0.40394568	     -3.34386714	     -8.11507639	     -7.49999987	     -9.05466424	     -0.66294546	      7.69592034	     15.53268422	    -11.58551332	     -5.16873162	     38.10041138	     86.00687354	     10.09735660	     -4.72861621	     -3.21973608	     13.28272843	     88.38048245
     44.93333330	      1.16979404	      1.25330281	    171.38601763	      0.53532068	      0.91048787	      0.77209567	     19.14182223	     -3.93289691	      1.78888076	     81.11470669	      1.41571870	      4.46940358	    -11.65842129	     -7.49999987	     23.05733178	     -1.46052428	     -3.00088186	     24.51603815	      0.42788559	     -1.69367742	     -8.50544577	     -7.49999987	    -10.03590102	     -0.60447817	      7.10937145	     14.45475235	    -10.76451274	     -5.05139996	     37.23350516	     86.06980242	     10.59680864	     -4.93257829	     -3.19951291	     14.09764679	     88.35095922
     44.95000000	      1.41098330	      0.98307837	    170.81602882	      0.53920959	      0.91463774	      0.77637668	     23.01060501	     -4.20078526	      2.74706674	     83.28503142	      1.45359802	      4.48913782	    -12.95542682	     -7.49999987	     22.71498503	     -1.27120109	     -3.28530614	     26.35282013	      0.45994348	      0.79215584	     -7.62787243	     -7.49999987	     -9.78237320	     -0.68486631	      5.77949923	     14.45872395	     -9.51750228	     -4.75735284	     33.90479930	     90.21950968	      9.87135602	     -5.52511250	     -4.11063838	     16.60644672	     89.53514815
     44.96666670	      1.16163267	      0.77457446	    170.66273387	      0.54482391	      0.91809567	      0.78300445	     26.15601218	     -4.50724538	      3.28103904	     83.86593789	      1.46373675	      4.07297392	    -14.55525508	     -7.49999987	     21.98714216	     -0.70477412	     -2.55273798	     28.35731312	      0.49492848	      2.59464194	     -7.91646439	     -7.49999987	    -10.55853845	     -0.74555069	      5.03434295	     13.62638851	     -9.02893484	     -5.03281352	     32.64640604	     89.64065371	     10.56908702	     -5.84283795	     -3.84880137	     17.76160266	     89.13040179
     44.98333330	      1.58013179	      0.58770392	    170.67861502	      0.54999923	      0.91946587	      0.78761423	     29.61337801	     -4.54774699	      3.55166898	     82.95643220	      1.44786288	      3.43553066	    -16.03302979	     -7.49999987	     22.15113292	     -0.16377533	     -1.86709277	     30.09800910	      0.52530936	      4.11844375	     -7.89769434	     -7.49999987	    -10.49499896	     -0.53336351	      3.95064702	     12.80196785	     -8.54894677	     -5.36365755	     30.71055481	     88.70994791	     10.87506177	     -6.44912611	     -2.34619983	     19.28569307	     88.57929156
     45.00000000	      2.03120045	      0.56007206	    170.81721885	      0.55374439	      0.92076629	      0.78730717	     32.31542956	     -4.23226548	      3.51783134	     80.42461472	      1.40367433	      2.36053264	    -17.37048481	     -7.49999987	     22.21292750	      0.20378747	     -1.30115577	     30.91476379	      0.53956442	      4.53469947	     -8.17474924	     -7.49999987	    -10.42618574	     -0.22313062	      3.21804464	     11.31395879	     -8.25017051	     -6.05415297	     29.42599314	     88.57219146	     11.59897961	     -6.83325613	     -2.10806430	     20.37541134	     88.66522658
